<?xml version="1.0" standalone="no"?>
<!DOCTYPE svg PUBLIC "-//W3C//DTD SVG 20010904//EN"
 "http://www.w3.org/TR/2001/REC-SVG-20010904/DTD/svg10.dtd">
<svg version="1.0" xmlns="http://www.w3.org/2000/svg"
 width="1314.000000pt" height="1314.000000pt" viewBox="0 0 1314.000000 1314.000000"
 preserveAspectRatio="xMidYMid meet">
<metadata>
Created by potrace 1.14, written by Peter Selinger 2001-2017
</metadata>
<g transform="translate(0.000000,1314.000000) scale(0.100000,-0.100000)"
fill="#000000" stroke="none">
<path d="M6530 12617 l0 -114 -237 -6 c-350 -9 -618 -39 -957 -107 -1448 -291
-2737 -1168 -3559 -2420 -179 -273 -371 -636 -486 -919 -56 -135 -61 -152 -32
-105 10 17 34 42 53 55 29 21 44 24 119 24 l85 0 34 80 c88 208 307 620 359
676 21 22 430 286 512 329 13 8 2 -12 -30 -50 -288 -346 -416 -796 -350 -1230
17 -111 27 -139 58 -155 l29 -14 -19 72 c-45 177 -50 437 -9 625 56 265 181
510 363 717 59 66 191 185 205 185 4 0 23 -25 41 -55 18 -30 36 -55 39 -55 3
0 253 153 271 166 3 3 -17 39 -57 102 -14 22 -13 23 59 56 101 47 253 91 385
111 134 21 417 16 534 -10 206 -45 424 -143 580 -259 83 -62 233 -209 278
-273 l22 -32 -55 -33 c-35 -21 -53 -38 -49 -47 7 -21 145 -241 154 -246 10 -6
263 151 268 165 3 7 -82 150 -149 253 -4 6 -32 -6 -65 -27 l-59 -37 -35 43
c-229 281 -526 461 -890 539 -153 33 -437 33 -598 1 -62 -12 -125 -27 -140
-33 -15 -6 -22 -6 -17 -1 9 8 703 444 771 484 l31 18 37 -60 c25 -41 41 -58
50 -53 7 5 69 43 139 87 l126 78 -51 81 c-28 45 -64 103 -80 129 -16 26 -34
48 -38 48 -8 0 -245 -144 -264 -161 -5 -4 6 -31 23 -60 18 -28 29 -55 24 -59
-15 -14 -956 -601 -994 -621 l-38 -19 -30 50 c-17 28 -33 50 -35 50 -3 0 -49
-28 -103 -62 -54 -33 -115 -72 -135 -85 l-37 -23 31 -50 c27 -44 30 -53 17
-65 -8 -8 -126 -84 -264 -171 -137 -86 -285 -179 -329 -206 -43 -27 -75 -43
-70 -36 21 37 167 245 232 332 326 431 759 852 1192 1157 834 588 1763 918
2785 990 213 15 696 6 895 -16 693 -76 1288 -249 1881 -546 1140 -570 2069
-1555 2559 -2714 23 -55 46 -103 49 -108 4 -4 27 -1 50 8 89 31 193 9 239 -50
13 -16 41 -87 63 -158 38 -120 40 -133 29 -170 -7 -23 -23 -55 -36 -73 l-24
-31 49 -5 c60 -6 112 -39 139 -88 12 -22 24 -74 31 -138 15 -138 14 -175 -6
-216 -15 -33 -15 -37 0 -53 25 -28 75 -141 93 -213 23 -88 23 -238 0 -315 -22
-73 -54 -138 -95 -189 l-31 -38 37 -25 c54 -37 70 -61 97 -144 57 -176 73
-406 40 -567 -43 -212 -163 -394 -327 -497 l-45 -29 -27 -138 c-15 -76 -26
-140 -24 -142 2 -2 42 -24 89 -48 71 -36 89 -51 114 -91 42 -68 39 -108 -19
-242 -53 -123 -76 -161 -105 -170 -18 -6 -20 -16 -20 -88 -1 -268 -165 -493
-415 -568 -38 -12 -80 -25 -91 -29 -13 -5 -41 -45 -71 -102 -70 -131 -162
-281 -264 -434 l-87 -130 35 -33 c62 -59 87 -142 63 -207 -18 -45 -187 -251
-217 -262 -73 -29 -135 -22 -205 24 l-38 24 -74 -77 c-40 -43 -85 -92 -99
-108 -43 -52 -324 -307 -461 -419 -283 -231 -647 -468 -973 -634 l-42 -22 -11
56 c-30 143 -146 300 -293 398 -135 89 -193 108 -437 141 -418 57 -707 215
-814 445 -14 30 -26 60 -26 67 0 11 -31 22 -106 38 -38 7 -39 13 -55 230 -11
146 1 540 16 566 4 5 43 28 87 50 352 177 715 495 990 866 182 244 320 507
449 850 l50 133 -48 63 c-26 35 -52 64 -56 66 -5 1 -24 -40 -41 -91 -135 -386
-330 -737 -583 -1053 -111 -139 -318 -347 -448 -451 -341 -271 -696 -424
-1031 -441 -947 -48 -1998 953 -2298 2191 -99 404 -114 710 -65 1275 l12 134
57 71 c112 140 249 243 387 291 105 36 269 45 396 21 172 -33 357 -107 581
-234 60 -34 110 -61 111 -60 7 10 135 282 135 289 0 19 -319 123 -491 159
-425 88 -735 20 -972 -215 -37 -36 -87 -95 -113 -130 -25 -36 -47 -65 -49 -65
-2 0 -1 8 1 18 31 146 45 255 34 262 -10 6 -8 30 10 111 21 102 78 306 99 362
l11 29 36 -31 c116 -103 258 -144 411 -121 91 14 111 23 123 55 l9 24 43 -24
c52 -28 132 -51 211 -61 65 -7 207 11 234 31 14 10 24 10 55 -1 72 -25 190
-35 269 -23 86 13 105 21 114 49 8 26 31 25 96 -4 80 -35 155 -50 245 -48 103
1 157 15 183 48 24 30 34 29 126 -9 33 -14 92 -30 132 -35 118 -17 273 11 273
48 0 15 68 12 100 -5 55 -29 145 -46 235 -45 114 0 165 12 190 44 26 32 38 32
106 2 84 -37 156 -49 266 -44 106 4 150 20 160 59 7 26 29 24 104 -10 81 -36
151 -51 242 -51 134 1 194 30 185 92 -4 21 0 28 13 28 39 0 140 -401 183 -730
58 -431 66 -887 22 -1182 -9 -61 -9 -85 -2 -80 6 5 30 23 54 41 l42 33 1 -69
c0 -57 14 -165 18 -140 0 4 12 72 26 151 45 261 58 430 59 733 1 156 2 283 2
283 1 0 21 -9 45 -20 99 -44 204 -4 250 95 23 51 24 99 0 150 -23 53 -59 83
-218 185 -73 47 -135 91 -138 98 -6 16 -19 24 214 -131 191 -127 244 -157 278
-157 13 0 12 5 -10 28 -33 34 -107 247 -107 307 0 48 41 120 86 152 16 12 305
112 641 222 l613 202 43 57 c411 537 298 1313 -250 1719 -142 106 -311 181
-493 220 -112 24 -371 24 -478 -1 -371 -83 -672 -310 -839 -632 -92 -177 -113
-293 -113 -636 0 -117 -3 -230 -6 -250 l-7 -38 -50 68 c-203 268 -503 487
-851 623 -113 44 -307 101 -406 120 -99 18 -99 18 -38 88 147 168 258 442 258
636 0 123 -43 250 -113 338 -78 97 -229 161 -377 161 -93 -1 -144 -12 -232
-51 l-58 -26 -45 44 c-135 131 -314 196 -505 186 -185 -11 -305 -61 -421 -177
-166 -165 -217 -384 -148 -645 57 -220 207 -453 378 -590 35 -27 59 -51 54
-52 -4 -1 -66 -14 -138 -28 -233 -47 -400 -102 -581 -193 -106 -54 -258 -149
-315 -200 -19 -17 -80 -56 -135 -88 -269 -154 -386 -274 -429 -439 -18 -70
-19 -130 -4 -190 10 -41 8 -53 -24 -142 -52 -141 -102 -321 -133 -477 l-27
-135 -188 -117 c-104 -64 -189 -121 -189 -126 0 -14 131 -218 140 -218 5 0 48
25 96 55 48 30 89 53 92 51 2 -3 -2 -73 -9 -158 -20 -230 -18 -701 5 -863 40
-292 124 -626 221 -876 5 -14 -5 -13 -74 7 -275 80 -607 70 -897 -26 l-91 -31
79 -202 c55 -138 90 -213 111 -237 18 -19 155 -209 304 -421 150 -212 278
-391 285 -396 7 -5 36 -18 63 -28 147 -53 337 -179 414 -275 l33 -42 24 57
c42 104 102 147 205 146 69 0 102 -8 274 -67 209 -70 249 -61 281 68 l16 66
87 -58 c111 -75 241 -149 336 -191 74 -33 75 -34 82 -79 10 -61 10 -549 0
-632 -8 -65 -10 -69 -56 -105 -37 -29 -56 -55 -81 -111 -110 -243 -449 -432
-940 -522 -300 -55 -523 -260 -556 -511 -4 -27 -8 -49 -11 -49 -8 0 -281 140
-358 183 l-79 45 -47 -42 c-65 -58 -142 -80 -202 -57 -14 6 -72 50 -130 100
-84 72 -108 98 -119 132 -13 40 -17 43 -75 59 -214 59 -402 248 -443 447 -13
59 -9 252 5 286 4 11 -23 -3 -71 -36 -44 -30 -96 -60 -118 -67 -47 -15 -126
-9 -160 13 -28 19 -641 884 -663 936 -9 20 -12 48 -9 66 6 30 4 31 -39 43 -89
24 -88 21 -304 569 -110 277 -202 514 -205 528 -12 48 13 107 65 158 l50 48
-38 148 -37 149 -38 5 c-53 7 -109 38 -134 74 -19 29 -64 242 -64 304 1 52 45
107 125 154 15 9 16 22 5 155 -16 194 -14 186 -57 200 -50 16 -99 54 -118 89
-10 21 -15 68 -16 173 -1 149 3 170 43 215 20 21 20 21 -3 28 -12 4 -41 25
-64 46 l-43 40 -7 -148 c-14 -274 8 -681 56 -1008 227 -1573 1124 -2995 2454
-3888 1125 -756 2499 -1087 3849 -927 1112 132 2126 572 3011 1306 167 138
539 510 685 684 773 920 1218 1986 1337 3200 24 243 23 778 -1 1020 -93 952
-381 1797 -876 2575 -311 489 -727 962 -1180 1341 -342 286 -718 529 -1145
739 -616 304 -1235 485 -1910 559 -158 18 -434 36 -542 36 l-73 0 0 -113z
m3022 -2885 c64 -44 91 -85 96 -146 3 -47 0 -57 -43 -124 -26 -40 -46 -74 -44
-76 14 -11 129 -86 132 -86 2 0 25 31 50 70 26 38 57 76 69 84 104 66 268 -26
293 -165 14 -74 -34 -168 -106 -208 -60 -34 -148 -27 -218 17 l-51 31 -93
-142 c-368 -567 -406 -622 -429 -631 -32 -11 -78 17 -78 49 0 12 108 188 243
396 133 206 246 379 250 385 4 7 -21 30 -63 57 l-69 46 -203 -312 c-303 -466
-300 -462 -326 -465 -32 -5 -72 24 -72 51 0 13 110 192 250 407 l249 384 -48
32 c-60 41 -97 84 -106 125 -18 81 34 193 110 237 59 34 143 28 207 -16z
m-4665 -4992 c50 -58 107 -120 127 -139 35 -34 35 -34 18 -63 -46 -78 -174
-113 -259 -70 -113 58 -153 190 -90 294 24 40 85 90 103 86 6 -2 51 -50 101
-108z m2157 -817 c-12 -72 -9 -327 5 -418 7 -44 19 -117 28 -163 9 -45 14 -84
12 -86 -5 -3 -1113 45 -1117 50 -2 1 3 36 11 76 28 134 40 287 34 436 -4 78
-4 142 -1 142 4 0 47 -11 98 -25 291 -78 564 -77 830 5 50 15 95 28 99 29 5 0
5 -20 1 -46z m135 -795 c21 -69 78 -170 134 -236 174 -206 470 -336 896 -393
84 -11 177 -29 206 -40 123 -46 254 -162 304 -269 15 -34 27 -79 29 -118 l4
-62 -58 -26 c-33 -15 -122 -51 -199 -81 -1332 -521 -2822 -490 -4149 86 l-49
21 6 60 c10 118 95 247 213 325 89 59 159 83 299 100 414 51 700 166 890 359
79 81 138 174 163 258 l17 58 641 0 641 0 12 -42z"/>
<path d="M9384 9623 c-27 -29 -39 -65 -31 -88 6 -15 84 -75 99 -75 11 0 78
105 78 124 0 22 -63 66 -94 66 -16 0 -37 -10 -52 -27z"/>
<path d="M9845 9305 c-49 -76 -49 -77 -10 -102 51 -33 97 -30 129 8 29 34 32
53 12 87 -13 25 -63 62 -84 62 -7 0 -28 -25 -47 -55z"/>
<path d="M3021 10001 c-16 -12 -21 -23 -16 -32 5 -8 138 -222 297 -476 l290
-463 29 15 c16 9 29 21 29 27 0 17 -584 947 -595 947 -5 0 -21 -8 -34 -18z"/>
<path d="M1383 8969 c-50 -15 -68 -49 -102 -191 -37 -156 -38 -177 -11 -211
11 -14 121 -83 244 -154 123 -70 222 -132 221 -138 -2 -5 -36 -141 -75 -302
l-72 -292 -42 -5 c-22 -3 -138 -8 -256 -12 -239 -6 -271 -14 -296 -68 -8 -17
-27 -89 -44 -159 -27 -116 -28 -131 -16 -161 18 -43 67 -78 119 -83 23 -3 555
23 1182 57 883 47 1150 65 1183 77 53 19 61 35 102 200 38 154 38 184 3 222
-32 33 -2000 1209 -2047 1222 -36 11 -50 10 -93 -2z m70 -124 c-3 -9 -8 -14
-10 -11 -3 3 -2 9 2 15 9 16 15 13 8 -4z m-46 -177 c-3 -8 -6 -5 -6 6 -1 11 2
17 5 13 3 -3 4 -12 1 -19z m1049 -799 c124 -72 222 -134 219 -137 -5 -5 -527
-33 -532 -29 -5 6 73 297 80 297 5 0 110 -59 233 -131z m-419 -1 c-3 -8 -6 -5
-6 6 -1 11 2 17 5 13 3 -3 4 -12 1 -19z m1063 -238 c0 -6 -23 -9 -52 -8 l-53
1 50 7 c28 4 51 8 53 8 1 1 2 -2 2 -8z m-222 -17 c-15 -2 -42 -2 -60 0 -18 2
-6 4 27 4 33 0 48 -2 33 -4z m-220 -10 c-16 -2 -40 -2 -55 0 -16 2 -3 4 27 4
30 0 43 -2 28 -4z m-653 -26 c27 -4 27 -4 -7 -6 -30 -1 -38 3 -38 17 0 11 3
13 8 5 4 -6 21 -13 37 -16z m443 16 c-15 -2 -42 -2 -60 0 -18 2 -6 4 27 4 33
0 48 -2 33 -4z m-220 -10 c-16 -2 -40 -2 -55 0 -16 2 -3 4 27 4 30 0 43 -2 28
-4z m-660 -30 c-21 -2 -55 -2 -75 0 -21 2 -4 4 37 4 41 0 58 -2 38 -4z m-290
-10 c-21 -2 -57 -2 -80 0 -24 2 -7 4 37 4 44 0 63 -2 43 -4z m1995 -120 c-13
-2 -35 -2 -50 0 -16 2 -5 4 22 4 28 0 40 -2 28 -4z m-180 -10 c-13 -2 -33 -2
-45 0 -13 2 -3 4 22 4 25 0 35 -2 23 -4z m-180 -10 c-13 -2 -35 -2 -50 0 -16
2 -5 4 22 4 28 0 40 -2 28 -4z m-180 -10 c-13 -2 -35 -2 -50 0 -16 2 -5 4 22
4 28 0 40 -2 28 -4z m-190 -10 c-13 -2 -33 -2 -45 0 -13 2 -3 4 22 4 25 0 35
-2 23 -4z m-180 -10 c-13 -2 -35 -2 -50 0 -16 2 -5 4 22 4 28 0 40 -2 28 -4z
m-180 -10 c-13 -2 -35 -2 -50 0 -16 2 -5 4 22 4 28 0 40 -2 28 -4z m-190 -10
c-13 -2 -35 -2 -50 0 -16 2 -5 4 22 4 28 0 40 -2 28 -4z m-180 -10 c-13 -2
-35 -2 -50 0 -16 2 -5 4 22 4 28 0 40 -2 28 -4z m-180 -10 c-13 -2 -35 -2 -50
0 -16 2 -5 4 22 4 28 0 40 -2 28 -4z m-190 -10 c-13 -2 -35 -2 -50 0 -16 2 -5
4 22 4 28 0 40 -2 28 -4z m-180 -10 c-13 -2 -35 -2 -50 0 -16 2 -5 4 22 4 28
0 40 -2 28 -4z"/>
<path d="M11575 8916 c-38 -13 -536 -177 -1105 -365 -985 -324 -1037 -342
-1067 -376 -25 -26 -33 -44 -33 -73 0 -36 54 -213 80 -261 13 -25 66 -51 103
-51 13 0 162 45 330 100 167 55 307 100 310 100 3 0 -6 -26 -20 -57 -90 -204
-64 -461 72 -728 l51 -100 -33 -54 c-83 -139 -111 -334 -71 -501 15 -61 59
-159 98 -214 17 -25 29 -46 26 -46 -3 0 -130 54 -283 120 -156 67 -292 120
-309 120 -62 0 -94 -35 -152 -168 -48 -111 -52 -125 -43 -158 6 -20 20 -47 31
-59 12 -13 139 -74 283 -136 144 -62 263 -113 265 -114 1 -1 -31 -35 -71 -76
-178 -179 -214 -406 -101 -633 116 -231 358 -426 696 -561 512 -202 959 -123
1111 196 47 99 60 167 55 278 -4 80 -2 91 13 91 36 0 67 42 118 159 54 127 57
140 40 174 -29 56 -66 76 -416 228 l-356 154 154 7 c166 7 256 25 377 76 164
69 295 188 367 335 64 131 77 188 82 362 4 127 1 166 -17 255 -40 198 -77 252
-179 266 l-46 6 56 57 c70 71 125 180 139 275 23 150 -23 335 -112 449 l-30
37 26 31 c30 35 32 59 14 210 -9 82 -16 107 -35 130 -42 49 -75 53 -287 30
-104 -12 -198 -21 -210 -20 -12 0 54 26 146 58 172 58 206 78 229 133 10 25 8
43 -21 136 -18 59 -39 122 -47 140 -31 66 -108 78 -228 38z m103 -111 c-3 -3
-9 2 -12 12 -6 14 -5 15 5 6 7 -7 10 -15 7 -18z m145 -482 c-7 -2 -19 -2 -25
0 -7 3 -2 5 12 5 14 0 19 -2 13 -5z m-90 -10 c-7 -2 -19 -2 -25 0 -7 3 -2 5
12 5 14 0 19 -2 13 -5z m-90 -10 c-7 -2 -21 -2 -30 0 -10 3 -4 5 12 5 17 0 24
-2 18 -5z m-100 -10 c-7 -2 -19 -2 -25 0 -7 3 -2 5 12 5 14 0 19 -2 13 -5z
m-90 -10 c-7 -2 -19 -2 -25 0 -7 3 -2 5 12 5 14 0 19 -2 13 -5z m-90 -10 c-7
-2 -21 -2 -30 0 -10 3 -4 5 12 5 17 0 24 -2 18 -5z m-100 -10 c-7 -2 -19 -2
-25 0 -7 3 -2 5 12 5 14 0 19 -2 13 -5z m624 -30 c-3 -10 -5 -4 -5 12 0 17 2
24 5 18 2 -7 2 -21 0 -30z m-714 20 c-7 -2 -19 -2 -25 0 -7 3 -2 5 12 5 14 0
19 -2 13 -5z m-90 -10 c-7 -2 -21 -2 -30 0 -10 3 -4 5 12 5 17 0 24 -2 18 -5z
m-100 -10 c-7 -2 -19 -2 -25 0 -7 3 -2 5 12 5 14 0 19 -2 13 -5z m-80 -10 c-7
-2 -19 -2 -25 0 -7 3 -2 5 12 5 14 0 19 -2 13 -5z m-116 -19 c-3 -3 -12 -4
-19 -1 -8 3 -5 6 6 6 11 1 17 -2 13 -5z m1110 -61 c-3 -10 -5 -4 -5 12 0 17 2
24 5 18 2 -7 2 -21 0 -30z m-44 -30 c-7 -2 -19 -2 -25 0 -7 3 -2 5 12 5 14 0
19 -2 13 -5z m-90 -10 c-7 -2 -21 -2 -30 0 -10 3 -4 5 12 5 17 0 24 -2 18 -5z
m-88 -13 c3 -5 2 -10 -4 -10 -5 0 -13 5 -16 10 -3 6 -2 10 4 10 5 0 13 -4 16
-10z m-1215 -14 c0 -2 -8 -10 -17 -17 -16 -13 -17 -12 -4 4 13 16 21 21 21 13z
m843 -33 c-23 -2 -64 -2 -90 0 -26 2 -7 3 42 3 50 0 71 -1 48 -3z m-196 -9
c-3 -3 -12 -4 -19 -1 -8 3 -5 6 6 6 11 1 17 -2 13 -5z m714 -31 c13 -16 12
-17 -3 -4 -10 7 -18 15 -18 17 0 8 8 3 21 -13z m-988 0 c-7 -2 -19 -2 -25 0
-7 3 -2 5 12 5 14 0 19 -2 13 -5z m44 -25 c-3 -7 -5 -2 -5 12 0 14 2 19 5 13
2 -7 2 -19 0 -25z m-100 16 c-3 -3 -12 -4 -19 -1 -8 3 -5 6 6 6 11 1 17 -2 13
-5z m310 -31 c-3 -10 -5 -4 -5 12 0 17 2 24 5 18 2 -7 2 -21 0 -30z m-717 23
c0 -2 -8 -10 -17 -17 -16 -13 -17 -12 -4 4 13 16 21 21 21 13z m320 -20 c0 -2
-7 -7 -16 -10 -8 -3 -12 -2 -9 4 6 10 25 14 25 6z m941 -23 c13 -16 12 -17 -3
-4 -10 7 -18 15 -18 17 0 8 8 3 21 -13z m-1001 -6 c0 -2 -19 -21 -42 -42 l-43
-40 40 43 c36 39 45 47 45 39z m-307 -22 c-3 -9 -8 -14 -10 -11 -3 3 -2 9 2
15 9 16 15 13 8 -4z m1066 -1 c124 -28 202 -96 223 -195 28 -135 -34 -209
-175 -209 -71 0 -105 18 -132 71 -22 41 -53 181 -61 272 l-7 77 42 0 c23 0 73
-7 110 -16z m-502 -31 c-3 -10 -5 -4 -5 12 0 17 2 24 5 18 2 -7 2 -21 0 -30z
m210 -15 c-3 -7 -5 -2 -5 12 0 14 2 19 5 13 2 -7 2 -19 0 -25z m-338 -144 c12
-121 39 -234 70 -305 l20 -44 -42 -7 c-84 -13 -86 -12 -112 45 -52 113 -69
251 -43 338 14 48 77 118 88 98 4 -8 12 -64 19 -125z m138 69 c-3 -10 -5 -4
-5 12 0 17 2 24 5 18 2 -7 2 -21 0 -30z m853 -8 c0 -5 -5 -3 -10 5 -5 8 -10
20 -10 25 0 6 5 3 10 -5 5 -8 10 -19 10 -25z m-643 -7 c-3 -7 -5 -2 -5 12 0
14 2 19 5 13 2 -7 2 -19 0 -25z m-830 0 c-3 -8 -6 -5 -6 6 -1 11 2 17 5 13 3
-3 4 -12 1 -19z m-10 -130 c-2 -18 -4 -4 -4 32 0 36 2 50 4 33 2 -18 2 -48 0
-65z m850 70 c-3 -8 -6 -5 -6 6 -1 11 2 17 5 13 3 -3 4 -12 1 -19z m-210 -20
c-3 -7 -5 -2 -5 12 0 14 2 19 5 13 2 -7 2 -19 0 -25z m-410 -10 c-3 -7 -5 -2
-5 12 0 14 2 19 5 13 2 -7 2 -19 0 -25z m1490 10 c-3 -8 -6 -5 -6 6 -1 11 2
17 5 13 3 -3 4 -12 1 -19z m-220 -50 c-2 -13 -4 -3 -4 22 0 25 2 35 4 23 2
-13 2 -33 0 -45z m-1270 -55 c-3 -10 -5 -4 -5 12 0 17 2 24 5 18 2 -7 2 -21 0
-30z m-220 -45 c-3 -8 -6 -5 -6 6 -1 11 2 17 5 13 3 -3 4 -12 1 -19z m1473 14
c0 -5 -7 -17 -15 -28 -14 -18 -14 -17 -4 9 12 27 19 34 19 19z m237 -34 c-3
-8 -6 -5 -6 6 -1 11 2 17 5 13 3 -3 4 -12 1 -19z m-267 -21 c0 -2 -12 -14 -27
-28 l-28 -24 24 28 c23 25 31 32 31 24z m-495 -47 c10 -11 16 -20 13 -20 -3 0
-13 9 -23 20 -10 11 -16 20 -13 20 3 0 13 -9 23 -20z m292 -66 c-3 -3 -12 -4
-19 -1 -8 3 -5 6 6 6 11 1 17 -2 13 -5z m363 -59 c-24 -25 -46 -45 -49 -45 -3
0 15 20 39 45 24 25 46 45 49 45 3 0 -15 -20 -39 -45z m-839 8 c13 -16 12 -17
-3 -4 -17 13 -22 21 -14 21 2 0 10 -8 17 -17z m74 -73 c10 -11 14 -20 9 -20
-5 0 -15 9 -22 20 -7 11 -11 20 -9 20 2 0 12 -9 22 -20z m-97 -7 c-15 -2 -42
-2 -60 0 -18 2 -6 4 27 4 33 0 48 -2 33 -4z m-155 -10 c-7 -2 -19 -2 -25 0 -7
3 -2 5 12 5 14 0 19 -2 13 -5z m902 -3 c-3 -5 -12 -10 -18 -10 -7 0 -6 4 3 10
19 12 23 12 15 0z m-1310 -83 c19 -4 19 -5 -1 -6 -12 0 -28 7 -35 17 -12 15
-12 16 1 6 8 -7 24 -14 35 -17z m873 16 c-10 -2 -18 -12 -18 -20 0 -9 -3 -14
-6 -10 -12 11 5 37 23 36 17 -1 17 -2 1 -6z m215 0 c-7 -2 -19 -2 -25 0 -7 3
-2 5 12 5 14 0 19 -2 13 -5z m-958 -13 c-4 -7 -65 -1 -65 6 0 3 15 4 34 2 19
-1 33 -5 31 -8z m1218 -57 c-7 -2 -19 -2 -25 0 -7 3 -2 5 12 5 14 0 19 -2 13
-5z m-1313 -6 c0 -2 -15 -16 -32 -33 l-33 -29 29 33 c28 30 36 37 36 29z m807
-19 c-3 -8 -6 -5 -6 6 -1 11 2 17 5 13 3 -3 4 -12 1 -19z m576 15 c-7 -2 -19
-2 -25 0 -7 3 -2 5 12 5 14 0 19 -2 13 -5z m74 -9 c-3 -3 -12 -4 -19 -1 -8 3
-5 6 6 6 11 1 17 -2 13 -5z m-312 -114 c27 -78 30 -96 30 -220 0 -107 -4 -146
-19 -189 -36 -105 -139 -184 -257 -198 l-50 -6 6 39 c4 21 25 176 48 344 l42
305 35 6 c19 4 57 6 85 5 l50 -1 30 -85z m-707 73 c-10 -2 -26 -2 -35 0 -10 3
-2 5 17 5 19 0 27 -2 18 -5z m120 0 c-10 -2 -28 -2 -40 0 -13 2 -5 4 17 4 22
1 32 -1 23 -4z m239 -35 c-3 -8 -6 -5 -6 6 -1 11 2 17 5 13 3 -3 4 -12 1 -19z
m-210 -10 c-3 -8 -6 -5 -6 6 -1 11 2 17 5 13 3 -3 4 -12 1 -19z m-417 -41 c0
-2 -12 -14 -27 -28 l-28 -24 24 28 c23 25 31 32 31 24z m617 -29 c-3 -7 -5 -2
-5 12 0 14 2 19 5 13 2 -7 2 -19 0 -25z m-210 0 c-3 -8 -6 -5 -6 6 -1 11 2 17
5 13 3 -3 4 -12 1 -19z m-152 -25 c-3 -16 -16 -113 -30 -218 -35 -265 -31
-248 -64 -231 -37 19 -100 90 -117 132 -20 48 -18 160 5 209 31 69 110 121
203 134 4 1 5 -11 3 -26z m1112 -25 c-3 -8 -6 -5 -6 6 -1 11 2 17 5 13 3 -3 4
-12 1 -19z m-760 -20 c-3 -7 -5 -2 -5 12 0 14 2 19 5 13 2 -7 2 -19 0 -25z
m540 10 c-3 -8 -6 -5 -6 6 -1 11 2 17 5 13 3 -3 4 -12 1 -19z m-750 -20 c-3
-7 -5 -2 -5 12 0 14 2 19 5 13 2 -7 2 -19 0 -25z m980 -45 c-3 -10 -5 -4 -5
12 0 17 2 24 5 18 2 -7 2 -21 0 -30z m-780 -15 c-3 -7 -5 -2 -5 12 0 14 2 19
5 13 2 -7 2 -19 0 -25z m560 -15 c-3 -10 -5 -2 -5 17 0 19 2 27 5 18 2 -10 2
-26 0 -35z m-1490 5 c-3 -7 -5 -2 -5 12 0 14 2 19 5 13 2 -7 2 -19 0 -25z
m720 0 c-3 -8 -6 -5 -6 6 -1 11 2 17 5 13 3 -3 4 -12 1 -19z m-500 -55 c-3
-10 -5 -4 -5 12 0 17 2 24 5 18 2 -7 2 -21 0 -30z m700 -5 c-3 -8 -6 -5 -6 6
-1 11 2 17 5 13 3 -3 4 -12 1 -19z m-210 -20 c-3 -7 -5 -2 -5 12 0 14 2 19 5
13 2 -7 2 -19 0 -25z m780 -30 c-2 -13 -4 -5 -4 17 -1 22 1 32 4 23 2 -10 2
-28 0 -40z m-1500 10 c-3 -7 -5 -2 -5 12 0 14 2 19 5 13 2 -7 2 -19 0 -25z
m230 -40 c-3 -7 -5 -2 -5 12 0 14 2 19 5 13 2 -7 2 -19 0 -25z m690 10 c-3 -8
-6 -5 -6 6 -1 11 2 17 5 13 3 -3 4 -12 1 -19z m-210 -20 c-3 -7 -5 -2 -5 12 0
14 2 19 5 13 2 -7 2 -19 0 -25z m1010 -25 c-3 -10 -5 -4 -5 12 0 17 2 24 5 18
2 -7 2 -21 0 -30z m-1710 -15 c-3 -8 -6 -5 -6 6 -1 11 2 17 5 13 3 -3 4 -12 1
-19z m1480 0 c-3 -8 -6 -5 -6 6 -1 11 2 17 5 13 3 -3 4 -12 1 -19z m-580 -20
c-3 -7 -5 -2 -5 12 0 14 2 19 5 13 2 -7 2 -19 0 -25z m-210 -10 c-3 -7 -5 -2
-5 12 0 14 2 19 5 13 2 -7 2 -19 0 -25z m1010 -20 c-3 -8 -6 -5 -6 6 -1 11 2
17 5 13 3 -3 4 -12 1 -19z m-810 -40 c-3 -7 -5 -2 -5 12 0 14 2 19 5 13 2 -7
2 -19 0 -25z m-210 -10 c-3 -8 -6 -5 -6 6 -1 11 2 17 5 13 3 -3 4 -12 1 -19z
m-357 -53 c13 -14 21 -25 18 -25 -2 0 -15 11 -28 25 -13 14 -21 25 -18 25 2 0
15 -11 28 -25z m557 -7 c-3 -8 -6 -5 -6 6 -1 11 2 17 5 13 3 -3 4 -12 1 -19z
m-210 -20 c-3 -7 -5 -2 -5 12 0 14 2 19 5 13 2 -7 2 -19 0 -25z m733 -1 c0 -2
-17 -19 -37 -38 l-38 -34 34 38 c33 34 41 42 41 34z m-1299 -44 c13 -16 12
-17 -3 -4 -10 7 -18 15 -18 17 0 8 8 3 21 -13z m766 -5 c-3 -8 -6 -5 -6 6 -1
11 2 17 5 13 3 -3 4 -12 1 -19z m-210 -20 c-3 -7 -5 -2 -5 12 0 14 2 19 5 13
2 -7 2 -19 0 -25z m-188 -4 c14 -12 -19 -1 -35 12 -18 14 -18 14 6 3 14 -6 27
-13 29 -15z m-304 -44 c21 -22 37 -40 34 -40 -3 0 -23 18 -44 40 -21 22 -37
40 -34 40 3 0 23 -18 44 -40z m692 -12 c-3 -7 -5 -2 -5 12 0 14 2 19 5 13 2
-7 2 -19 0 -25z m-207 2 c0 -5 -5 -10 -11 -10 -5 0 -7 5 -4 10 3 6 8 10 11 10
2 0 4 -4 4 -10z m880 -65 c-24 -25 -46 -45 -49 -45 -3 0 15 20 39 45 24 25 46
45 49 45 3 0 -15 -20 -39 -45z m-427 28 c-7 -2 -19 -2 -25 0 -7 3 -2 5 12 5
14 0 19 -2 13 -5z m-862 -20 c13 -16 12 -17 -3 -4 -17 13 -22 21 -14 21 2 0
10 -8 17 -17z m757 10 c-21 -2 -57 -2 -80 0 -24 2 -7 4 37 4 44 0 63 -2 43 -4z
m-908 -123 c8 -5 11 -10 5 -10 -5 0 -17 5 -25 10 -8 5 -10 10 -5 10 6 0 17 -5
25 -10z m647 -76 c-3 -3 -12 -4 -19 -1 -8 3 -5 6 6 6 11 1 17 -2 13 -5z m66
-11 c-7 -2 -19 -2 -25 0 -7 3 -2 5 12 5 14 0 19 -2 13 -5z m334 1 c-3 -3 -12
-4 -19 -1 -8 3 -5 6 6 6 11 1 17 -2 13 -5z m-124 -11 c-29 -2 -77 -2 -105 0
-29 2 -6 3 52 3 58 0 81 -1 53 -3z m-868 -163 c4 -6 -7 -10 -27 -9 -31 1 -32
1 -8 9 14 4 26 8 27 9 1 1 5 -3 8 -9z m-315 -113 c0 -2 -10 -12 -22 -23 l-23
-19 19 23 c18 21 26 27 26 19z m377 -23 c-3 -3 -12 -4 -19 -1 -8 3 -5 6 6 6
11 1 17 -2 13 -5z m166 -1 c-7 -2 -21 -2 -30 0 -10 3 -4 5 12 5 17 0 24 -2 18
-5z m54 -9 c-3 -3 -12 -4 -19 -1 -8 3 -5 6 6 6 11 1 17 -2 13 -5z m-377 -38
c0 -2 -8 -10 -17 -17 -16 -13 -17 -12 -4 4 13 16 21 21 21 13z m465 -110 c188
-63 350 -160 428 -258 82 -102 54 -254 -55 -307 -123 -59 -401 5 -623 143 -81
51 -169 139 -190 191 -45 106 15 230 125 264 65 20 198 6 315 -33z m-828 -98
c-3 -8 -6 -5 -6 6 -1 11 2 17 5 13 3 -3 4 -12 1 -19z m1264 5 c13 -16 12 -17
-3 -4 -17 13 -22 21 -14 21 2 0 10 -8 17 -17z m-1034 -60 c-3 -10 -5 -2 -5 17
0 19 2 27 5 18 2 -10 2 -26 0 -35z m1094 10 c13 -16 12 -17 -3 -4 -17 13 -22
21 -14 21 2 0 10 -8 17 -17z m216 -29 c-3 -3 -12 -4 -19 -1 -8 3 -5 6 6 6 11
1 17 -2 13 -5z m-1540 -36 c-3 -7 -5 -2 -5 12 0 14 2 19 5 13 2 -7 2 -19 0
-25z m1374 5 c13 -16 12 -17 -3 -4 -10 7 -18 15 -18 17 0 8 8 3 21 -13z m170
0 c13 -16 12 -17 -3 -4 -10 7 -18 15 -18 17 0 8 8 3 21 -13z m-1181 -198 c19
-19 32 -35 29 -35 -3 0 -20 16 -39 35 -19 19 -32 35 -29 35 3 0 20 -16 39 -35z
m1087 -32 c-2 -16 -4 -5 -4 22 0 28 2 40 4 28 2 -13 2 -35 0 -50z m-1016 -30
c13 -16 12 -17 -3 -4 -10 7 -18 15 -18 17 0 8 8 3 21 -13z m1216 -35 c-2 -13
-4 -5 -4 17 -1 22 1 32 4 23 2 -10 2 -28 0 -40z m-1457 -43 c30 -30 52 -55 49
-55 -2 0 -29 25 -59 55 -30 30 -52 55 -49 55 2 0 29 -25 59 -55z m1200 -48 c0
-2 -17 -19 -37 -38 l-38 -34 34 38 c33 34 41 42 41 34z m-1105 -37 c10 -11 16
-20 13 -20 -3 0 -13 9 -23 20 -10 11 -16 20 -13 20 3 0 13 -9 23 -20z m652
-66 c-3 -3 -12 -4 -19 -1 -8 3 -5 6 6 6 11 1 17 -2 13 -5z m50 -10 c-3 -3 -12
-4 -19 -1 -8 3 -5 6 6 6 11 1 17 -2 13 -5z m140 -11 c-20 -2 -52 -2 -70 0 -17
2 0 4 38 4 39 0 53 -2 32 -4z m393 -78 c-24 -25 -46 -45 -49 -45 -3 0 15 20
39 45 24 25 46 45 49 45 3 0 -15 -20 -39 -45z m-543 -131 c-3 -3 -12 -4 -19
-1 -8 3 -5 6 6 6 11 1 17 -2 13 -5z m181 -11 c-27 -2 -69 -2 -95 0 -27 2 -5 3
47 3 52 0 74 -1 48 -3z"/>
<path d="M1181 8763 c-66 -188 -129 -404 -175 -605 -38 -162 -90 -458 -99
-563 -6 -57 -5 -58 5 -20 23 86 82 130 187 141 l60 7 11 71 c26 158 72 379
109 519 l38 148 -26 14 c-65 36 -111 100 -111 153 0 18 14 87 30 154 17 66 29
122 27 125 -3 2 -28 -63 -56 -144z"/>
<path d="M7710 8194 c-187 -22 -366 -66 -591 -145 l-117 -41 70 -146 c38 -81
71 -148 72 -150 2 -1 43 21 92 49 125 73 313 161 419 197 283 96 533 80 731
-49 98 -64 225 -192 295 -298 29 -44 55 -78 57 -76 7 6 -97 200 -142 265 -61
87 -177 202 -260 257 -77 52 -188 98 -285 119 -68 14 -278 26 -341 18z"/>
<path d="M5045 7421 c-191 -47 -345 -164 -446 -338 -16 -29 -40 -55 -52 -59
-37 -11 -157 -84 -157 -95 0 -14 60 -151 70 -163 5 -5 21 0 37 11 68 48 68 48
101 -11 61 -107 195 -199 367 -252 85 -26 101 -28 275 -28 159 0 196 3 265 22
254 69 437 232 461 410 3 28 10 50 14 47 9 -6 20 30 20 66 0 21 -6 28 -27 32
-20 4 -42 25 -73 68 -101 140 -287 251 -493 294 -93 20 -273 18 -362 -4z m421
-51 c43 -11 126 -43 183 -71 88 -43 118 -65 184 -131 44 -43 78 -81 76 -83 -2
-2 -38 5 -79 16 -201 50 -315 63 -560 64 -253 0 -327 -9 -504 -60 -49 -14 -91
-23 -94 -21 -2 3 12 28 33 55 94 130 255 223 430 251 84 13 237 4 331 -20z
m383 -382 l83 -11 -5 -52 c-14 -138 -142 -272 -331 -346 -99 -39 -108 -36 -39
15 105 77 167 194 180 339 3 39 11 67 17 67 6 0 49 -5 95 -12z m-934 -226 c49
-107 143 -193 248 -228 27 -9 47 -17 45 -19 -2 -1 -41 2 -88 7 -222 24 -432
143 -504 285 l-16 33 37 16 c21 9 81 32 133 50 l95 32 13 -61 c6 -33 23 -85
37 -115z"/>
<path d="M7555 7416 c-242 -64 -440 -212 -511 -381 -22 -53 2 -43 30 13 71
139 255 268 464 324 103 27 298 30 392 5 96 -25 221 -91 283 -147 75 -69 142
-171 182 -276 l34 -89 -36 -12 c-297 -104 -878 -63 -1287 91 -37 14 -70 26
-72 26 -5 0 -34 -70 -34 -82 0 -12 220 -117 343 -162 428 -159 890 -168 1228
-24 l46 19 -20 97 c-11 53 -22 99 -24 101 -1 2 -21 -4 -43 -14 -22 -10 -42
-16 -44 -14 -2 2 -18 41 -36 87 -64 166 -181 304 -322 378 -119 62 -175 75
-338 80 -129 4 -155 2 -235 -20z"/>
<path d="M2010 7153 c-465 -7 -865 -16 -888 -19 -30 -4 -55 -15 -78 -37 -39
-36 -39 -39 -36 -215 2 -110 3 -114 30 -142 16 -15 44 -32 64 -38 36 -10 2301
22 2367 34 20 3 49 20 68 39 l33 33 0 137 c0 154 -9 183 -66 210 -39 18 -262
18 -1494 -2z m1418 -180 l-2 -88 -3 82 -4 83 -162 3 -162 3 168 2 167 2 -2
-87z m-705 70 c-46 -2 -120 -2 -165 0 -46 1 -9 3 82 3 91 0 128 -2 83 -3z
m-615 -10 c-42 -2 -114 -2 -160 0 -46 1 -11 3 77 3 88 0 125 -2 83 -3z m-635
-10 c-46 -2 -120 -2 -165 0 -46 1 -9 3 82 3 91 0 128 -2 83 -3z m1900 -180
c-34 -2 -93 -2 -130 0 -37 2 -9 3 62 3 72 0 102 -1 68 -3z m-545 -10 c-42 -2
-114 -2 -160 0 -46 1 -11 3 77 3 88 0 125 -2 83 -3z m-615 -10 c-46 -2 -120
-2 -165 0 -46 1 -9 3 82 3 91 0 128 -2 83 -3z m-620 -10 c-46 -2 -120 -2 -165
0 -46 1 -9 3 82 3 91 0 128 -2 83 -3z"/>
<path d="M3255 6606 c-193 -34 -233 -49 -261 -101 -16 -30 -15 -38 5 -161 24
-145 38 -172 98 -193 37 -13 56 -12 239 18 206 34 223 39 263 75 40 37 43 58
20 194 -23 141 -35 167 -84 188 -46 19 -71 17 -280 -20z m172 -92 c-3 -3 -12
-4 -19 -1 -8 3 -5 6 6 6 11 1 17 -2 13 -5z m-60 -10 c-3 -3 -12 -4 -19 -1 -8
3 -5 6 6 6 11 1 17 -2 13 -5z m-60 -10 c-3 -3 -12 -4 -19 -1 -8 3 -5 6 6 6 11
1 17 -2 13 -5z m-167 -28 c0 -3 -4 -8 -10 -11 -5 -3 -10 -1 -10 4 0 6 5 11 10
11 6 0 10 -2 10 -4z m337 -48 c-3 -8 -6 -5 -6 6 -1 11 2 17 5 13 3 -3 4 -12 1
-19z m-340 -20 c-3 -8 -6 -5 -6 6 -1 11 2 17 5 13 3 -3 4 -12 1 -19z m350 -40
c-3 -8 -6 -5 -6 6 -1 11 2 17 5 13 3 -3 4 -12 1 -19z m-340 -20 c-3 -8 -6 -5
-6 6 -1 11 2 17 5 13 3 -3 4 -12 1 -19z m310 -34 c-3 -3 -12 -4 -19 -1 -8 3
-5 6 6 6 11 1 17 -2 13 -5z m-60 -10 c-3 -3 -12 -4 -19 -1 -8 3 -5 6 6 6 11 1
17 -2 13 -5z m-60 -10 c-3 -3 -12 -4 -19 -1 -8 3 -5 6 6 6 11 1 17 -2 13 -5z
m-60 -10 c-3 -3 -12 -4 -19 -1 -8 3 -5 6 6 6 11 1 17 -2 13 -5z m-60 -10 c-3
-3 -12 -4 -19 -1 -8 3 -5 6 6 6 11 1 17 -2 13 -5z"/>
<path d="M1979 6390 c-443 -76 -817 -143 -830 -150 -39 -20 -68 -51 -74 -80
-7 -32 31 -263 47 -290 19 -30 64 -50 112 -50 26 0 326 47 669 105 929 158
1015 173 1034 184 26 14 60 53 67 78 8 24 -29 256 -45 285 -18 34 -70 58 -124
57 -27 -1 -413 -63 -856 -139z m798 14 c-3 -3 -12 -4 -19 -1 -8 3 -5 6 6 6 11
1 17 -2 13 -5z m60 -36 c-3 -8 -6 -5 -6 6 -1 11 2 17 5 13 3 -3 4 -12 1 -19z
m-290 -4 c-3 -3 -12 -4 -19 -1 -8 3 -5 6 6 6 11 1 17 -2 13 -5z m-60 -10 c-3
-3 -12 -4 -19 -1 -8 3 -5 6 6 6 11 1 17 -2 13 -5z m-60 -10 c-3 -3 -12 -4 -19
-1 -8 3 -5 6 6 6 11 1 17 -2 13 -5z m-60 -10 c-3 -3 -12 -4 -19 -1 -8 3 -5 6
6 6 11 1 17 -2 13 -5z m-60 -10 c-3 -3 -12 -4 -19 -1 -8 3 -5 6 6 6 11 1 17
-2 13 -5z m540 -16 c-3 -8 -6 -5 -6 6 -1 11 2 17 5 13 3 -3 4 -12 1 -19z
m-600 6 c-3 -3 -12 -4 -19 -1 -8 3 -5 6 6 6 11 1 17 -2 13 -5z m-60 -10 c-3
-3 -12 -4 -19 -1 -8 3 -5 6 6 6 11 1 17 -2 13 -5z m-170 -30 c-3 -3 -12 -4
-19 -1 -8 3 -5 6 6 6 11 1 17 -2 13 -5z m-60 -10 c-3 -3 -12 -4 -19 -1 -8 3
-5 6 6 6 11 1 17 -2 13 -5z m900 -16 c-3 -8 -6 -5 -6 6 -1 11 2 17 5 13 3 -3
4 -12 1 -19z m-960 6 c-3 -3 -12 -4 -19 -1 -8 3 -5 6 6 6 11 1 17 -2 13 -5z
m-60 -10 c-3 -3 -12 -4 -19 -1 -8 3 -5 6 6 6 11 1 17 -2 13 -5z m-60 -10 c-3
-3 -12 -4 -19 -1 -8 3 -5 6 6 6 11 1 17 -2 13 -5z m-60 -10 c-3 -3 -12 -4 -19
-1 -8 3 -5 6 6 6 11 1 17 -2 13 -5z m-60 -10 c-3 -3 -12 -4 -19 -1 -8 3 -5 6
6 6 11 1 17 -2 13 -5z m-60 -10 c-3 -3 -12 -4 -19 -1 -8 3 -5 6 6 6 11 1 17
-2 13 -5z m1210 -10 c-3 -3 -12 -4 -19 -1 -8 3 -5 6 6 6 11 1 17 -2 13 -5z
m-1320 -10 c-3 -3 -12 -4 -19 -1 -8 3 -5 6 6 6 11 1 17 -2 13 -5z m1260 0 c-3
-3 -12 -4 -19 -1 -8 3 -5 6 6 6 11 1 17 -2 13 -5z m-1320 -10 c-3 -3 -12 -4
-19 -1 -8 3 -5 6 6 6 11 1 17 -2 13 -5z m1260 0 c-3 -3 -12 -4 -19 -1 -8 3 -5
6 6 6 11 1 17 -2 13 -5z m-1320 -10 c-3 -3 -12 -4 -19 -1 -8 3 -5 6 6 6 11 1
17 -2 13 -5z m1260 0 c-3 -3 -12 -4 -19 -1 -8 3 -5 6 6 6 11 1 17 -2 13 -5z
m-1320 -10 c-3 -3 -12 -4 -19 -1 -8 3 -5 6 6 6 11 1 17 -2 13 -5z m1270 0 c-3
-3 -12 -4 -19 -1 -8 3 -5 6 6 6 11 1 17 -2 13 -5z m-1339 -11 c-10 -2 -18 -9
-18 -15 0 -6 -3 -9 -6 -5 -10 10 6 27 24 26 15 -1 15 -2 0 -6z m1219 -9 c-3
-3 -12 -4 -19 -1 -8 3 -5 6 6 6 11 1 17 -2 13 -5z m-60 -10 c-3 -3 -12 -4 -19
-1 -8 3 -5 6 6 6 11 1 17 -2 13 -5z m-60 -10 c-3 -3 -12 -4 -19 -1 -8 3 -5 6
6 6 11 1 17 -2 13 -5z m-60 -10 c-3 -3 -12 -4 -19 -1 -8 3 -5 6 6 6 11 1 17
-2 13 -5z m-60 -10 c-3 -3 -12 -4 -19 -1 -8 3 -5 6 6 6 11 1 17 -2 13 -5z
m-990 -26 c-3 -8 -6 -5 -6 6 -1 11 2 17 5 13 3 -3 4 -12 1 -19z m930 16 c-3
-3 -12 -4 -19 -1 -8 3 -5 6 6 6 11 1 17 -2 13 -5z m-60 -10 c-3 -3 -12 -4 -19
-1 -8 3 -5 6 6 6 11 1 17 -2 13 -5z m-50 -10 c-3 -3 -12 -4 -19 -1 -8 3 -5 6
6 6 11 1 17 -2 13 -5z m-64 -11 c-7 -2 -19 -2 -25 0 -7 3 -2 5 12 5 14 0 19
-2 13 -5z m-56 -9 c-3 -3 -12 -4 -19 -1 -8 3 -5 6 6 6 11 1 17 -2 13 -5z
m-690 -26 c-3 -8 -6 -5 -6 6 -1 11 2 17 5 13 3 -3 4 -12 1 -19z m630 16 c-3
-3 -12 -4 -19 -1 -8 3 -5 6 6 6 11 1 17 -2 13 -5z m-60 -10 c-3 -3 -12 -4 -19
-1 -8 3 -5 6 6 6 11 1 17 -2 13 -5z m-60 -10 c-3 -3 -12 -4 -19 -1 -8 3 -5 6
6 6 11 1 17 -2 13 -5z m-60 -10 c-3 -3 -12 -4 -19 -1 -8 3 -5 6 6 6 11 1 17
-2 13 -5z m-60 -10 c-3 -3 -12 -4 -19 -1 -8 3 -5 6 6 6 11 1 17 -2 13 -5z
m-60 -10 c-3 -3 -12 -4 -19 -1 -8 3 -5 6 6 6 11 1 17 -2 13 -5z m-320 -26 c-3
-8 -6 -5 -6 6 -1 11 2 17 5 13 3 -3 4 -12 1 -19z m206 5 c-7 -2 -19 -2 -25 0
-7 3 -2 5 12 5 14 0 19 -2 13 -5z m-56 -9 c-3 -3 -12 -4 -19 -1 -8 3 -5 6 6 6
11 1 17 -2 13 -5z m-60 -10 c-3 -3 -12 -4 -19 -1 -8 3 -5 6 6 6 11 1 17 -2 13
-5z m-60 -10 c-3 -3 -12 -4 -19 -1 -8 3 -5 6 6 6 11 1 17 -2 13 -5z"/>
<path d="M6380 6349 c-75 -30 -150 -107 -180 -184 -31 -83 -24 -202 23 -385
38 -145 131 -420 145 -429 5 -3 -11 -58 -35 -121 -93 -244 -143 -441 -143
-562 0 -127 67 -232 181 -283 55 -24 70 -27 143 -23 93 5 145 27 205 87 66 66
86 121 85 231 0 114 -26 219 -119 496 l-65 192 24 59 c42 102 106 294 131 393
62 238 48 357 -54 459 -85 85 -228 114 -341 70z"/>
<path d="M2813 5955 c-62 -24 -126 -51 -143 -60 -37 -19 -70 -70 -70 -107 0
-15 45 -139 99 -277 54 -138 94 -251 87 -251 -6 0 -256 57 -556 126 -300 69
-562 126 -583 126 -45 -1 -288 -94 -334 -128 -19 -15 -37 -40 -44 -64 -11 -38
-7 -50 192 -556 183 -465 207 -519 234 -536 36 -22 88 -23 145 -3 55 20 58 19
26 -6 -14 -11 -33 -34 -41 -49 -35 -67 -36 -65 295 -535 170 -242 321 -450
335 -462 28 -25 76 -30 121 -13 15 6 78 47 139 90 117 83 145 117 145 177 0
22 -43 91 -169 269 l-169 239 277 6 c152 4 392 7 533 8 l257 1 25 -25 c13 -13
35 -26 48 -29 164 -30 251 -65 346 -139 91 -70 147 -178 125 -242 l-9 -27 -79
68 c-44 38 -103 86 -132 107 -61 44 -198 110 -265 126 -63 15 -192 14 -253 -3
-184 -49 -360 -192 -480 -389 -65 -106 -96 -199 -102 -307 -10 -166 34 -281
156 -401 89 -88 207 -153 301 -166 l55 -8 6 -42 c3 -23 14 -52 25 -64 38 -42
181 -158 207 -168 26 -10 65 -3 105 18 24 13 631 712 722 831 147 194 230 395
230 557 -1 269 -199 507 -535 642 l-95 38 -281 399 c-154 219 -294 412 -311
427 -24 23 -61 106 -183 415 -138 351 -155 389 -185 410 -47 32 -89 28 -217
-23z m-59 -160 c-4 -8 -8 -15 -10 -15 -2 0 -4 7 -4 15 0 8 4 15 10 15 5 0 7
-7 4 -15z m276 -715 c0 -5 -5 -10 -11 -10 -5 0 -7 5 -4 10 3 6 8 10 11 10 2 0
4 -4 4 -10z m260 -36 c0 -8 -19 -13 -24 -6 -3 5 1 9 9 9 8 0 15 -2 15 -3z
m-790 -199 c300 -69 557 -125 572 -125 23 0 41 -21 133 -151 59 -83 105 -152
103 -153 -1 -2 -267 -6 -590 -9 -535 -6 -588 -5 -588 10 0 8 -45 131 -101 272
-122 308 -117 295 -93 288 10 -4 264 -63 564 -132z m751 -82 c13 -16 12 -17
-3 -4 -17 13 -22 21 -14 21 2 0 10 -8 17 -17z m120 -170 c13 -16 12 -17 -3 -4
-17 13 -22 21 -14 21 2 0 10 -8 17 -17z m120 -170 c13 -16 12 -17 -3 -4 -17
13 -22 21 -14 21 2 0 10 -8 17 -17z m-328 -140 c-62 -2 -164 -2 -225 0 -62 1
-12 3 112 3 124 0 174 -2 113 -3z m-803 -10 c-108 -7 -228 -7 -223 0 2 4 64 6
136 5 73 -1 112 -3 87 -5z m1534 -55 c14 -16 15 -20 3 -15 -9 3 -24 -5 -38
-19 -12 -13 -24 -22 -27 -20 -5 6 -3 16 3 16 12 0 45 42 40 50 -11 17 0 11 19
-12z m-84 -91 c0 -2 -10 -12 -22 -23 l-23 -19 19 23 c18 21 26 27 26 19z
m-397 -54 c-62 -2 -164 -2 -225 0 -62 1 -12 3 112 3 124 0 174 -2 113 -3z
m-835 -10 c-60 -2 -156 -2 -215 0 -60 1 -11 3 107 3 118 0 167 -2 108 -3z
m1163 -16 c-6 -8 -8 -17 -4 -20 3 -4 1 -7 -5 -7 -15 0 -15 13 0 28 16 16 23
15 9 -1z m530 -24 c13 -16 12 -17 -3 -4 -10 7 -18 15 -18 17 0 8 8 3 21 -13z
m-474 -9 c-3 -3 -12 -4 -19 -1 -8 3 -5 6 6 6 11 1 17 -2 13 -5z m538 -44 c10
-11 16 -20 13 -20 -3 0 -13 9 -23 20 -10 11 -16 20 -13 20 3 0 13 -9 23 -20z
m-2264 -7 c13 -16 12 -17 -3 -4 -17 13 -22 21 -14 21 2 0 10 -8 17 -17z m2320
-60 c13 -16 12 -17 -3 -4 -17 13 -22 21 -14 21 2 0 10 -8 17 -17z m-290 -30
c13 -16 12 -17 -3 -4 -17 13 -22 21 -14 21 2 0 10 -8 17 -17z m60 -50 c13 -16
12 -17 -3 -4 -17 13 -22 21 -14 21 2 0 10 -8 17 -17z m-1970 -30 c13 -16 12
-17 -3 -4 -10 7 -18 15 -18 17 0 8 8 3 21 -13z m2296 -125 c-3 -7 -5 -2 -5 12
0 14 2 19 5 13 2 -7 2 -19 0 -25z m-1040 -4 c-3 -3 -12 -4 -19 -1 -8 3 -5 6 6
6 11 1 17 -2 13 -5z m120 0 c-3 -3 -12 -4 -19 -1 -8 3 -5 6 6 6 11 1 17 -2 13
-5z m-1256 -41 c13 -16 12 -17 -3 -4 -10 7 -18 15 -18 17 0 8 8 3 21 -13z
m1956 -70 c-2 -16 -4 -5 -4 22 0 28 2 40 4 28 2 -13 2 -35 0 -50z m-1037 23
c0 -2 -8 -10 -17 -17 -16 -13 -17 -12 -4 4 13 16 21 21 21 13z m1257 -28 c-3
-7 -5 -2 -5 12 0 14 2 19 5 13 2 -7 2 -19 0 -25z m-1307 -11 c0 -2 -17 -19
-37 -38 l-38 -34 34 38 c33 34 41 42 41 34z m681 -14 c13 -16 12 -17 -3 -4
-17 13 -22 21 -14 21 2 0 10 -8 17 -17z m54 -43 c10 -11 16 -20 13 -20 -3 0
-13 9 -23 20 -10 11 -16 20 -13 20 3 0 13 -9 23 -20z m-1484 -27 c13 -16 12
-17 -3 -4 -17 13 -22 21 -14 21 2 0 10 -8 17 -17z m1076 1 c-3 -3 -12 -4 -19
-1 -8 3 -5 6 6 6 11 1 17 -2 13 -5z m473 -29 c13 -14 21 -25 18 -25 -2 0 -15
11 -28 25 -13 14 -21 25 -18 25 2 0 15 -11 28 -25z m-890 11 c0 -2 -8 -10 -17
-17 -16 -13 -17 -12 -4 4 13 16 21 21 21 13z m240 -49 c0 -2 -19 -21 -42 -42
l-43 -40 40 43 c36 39 45 47 45 39z m720 -22 c13 -14 21 -25 18 -25 -2 0 -15
11 -28 25 -13 14 -21 25 -18 25 2 0 15 -11 28 -25z m-299 -22 c13 -16 12 -17
-3 -4 -17 13 -22 21 -14 21 2 0 10 -8 17 -17z m429 -7 c0 -2 -8 -10 -17 -17
-16 -13 -17 -12 -4 4 13 16 21 21 21 13z m-385 -26 c10 -11 16 -20 13 -20 -3
0 -13 9 -23 20 -10 11 -16 20 -13 20 3 0 13 -9 23 -20z m-247 -15 c49 -23 152
-96 232 -165 l35 -31 -40 -34 c-22 -19 -73 -52 -113 -72 -126 -63 -230 -48
-315 46 -43 48 -54 94 -34 142 30 71 106 139 157 139 14 0 49 -11 78 -25z
m573 8 c13 -16 12 -17 -3 -4 -10 7 -18 15 -18 17 0 8 8 3 21 -13z m-871 -7 c0
-2 -8 -10 -17 -17 -16 -13 -17 -12 -4 4 13 16 21 21 21 13z m605 -36 c10 -11
16 -20 13 -20 -3 0 -13 9 -23 20 -10 11 -16 20 -13 20 3 0 13 -9 23 -20z m75
-65 c13 -14 21 -25 18 -25 -2 0 -15 11 -28 25 -13 14 -21 25 -18 25 2 0 15
-11 28 -25z m-983 -37 c-3 -8 -6 -5 -6 6 -1 11 2 17 5 13 3 -3 4 -12 1 -19z
m1033 -51 l-24 -22 18 22 c16 19 17 25 5 40 -12 17 -12 17 6 0 19 -17 19 -17
-5 -40z m-803 -24 c-2 -16 -4 -5 -4 22 0 28 2 40 4 28 2 -13 2 -35 0 -50z
m1093 34 c0 -2 -10 -12 -22 -23 l-23 -19 19 23 c18 21 26 27 26 19z m-1333
-39 c-3 -8 -6 -5 -6 6 -1 11 2 17 5 13 3 -3 4 -12 1 -19z m1283 -21 c0 -2 -12
-14 -27 -28 l-28 -24 24 28 c23 25 31 32 31 24z m-290 -10 c0 -2 -15 -16 -32
-33 l-33 -29 29 33 c28 30 36 37 36 29z m-983 -49 c-3 -8 -6 -5 -6 6 -1 11 2
17 5 13 3 -3 4 -12 1 -19z m1203 -21 c0 -2 -10 -12 -22 -23 l-23 -19 19 23
c18 21 26 27 26 19z m-310 -11 c0 -2 -8 -10 -17 -17 -16 -13 -17 -12 -4 4 13
16 21 21 21 13z m-599 -23 c13 -16 12 -17 -3 -4 -17 13 -22 21 -14 21 2 0 10
-8 17 -17z m44 -43 c10 -11 16 -20 13 -20 -3 0 -13 9 -23 20 -10 11 -16 20
-13 20 3 0 13 -9 23 -20z m805 7 c0 -2 -12 -14 -27 -28 l-28 -24 24 28 c23 25
31 32 31 24z m-980 -154 c0 -8 -9 0 -50 45 l-45 47 48 -45 c26 -24 47 -45 47
-47z m920 84 c0 -2 -12 -14 -27 -28 l-28 -24 24 28 c23 25 31 32 31 24z m-583
-13 c-3 -3 -12 -4 -19 -1 -8 3 -5 6 6 6 11 1 17 -2 13 -5z m116 -1 c-7 -2 -19
-2 -25 0 -7 3 -2 5 12 5 14 0 19 -2 13 -5z m407 -56 c0 -2 -12 -14 -27 -28
l-28 -24 24 28 c23 25 31 32 31 24z m-829 -34 c13 -16 12 -17 -3 -4 -17 13
-22 21 -14 21 2 0 10 -8 17 -17z m464 -61 c-10 -9 -15 -12 -11 -5 3 6 3 13 -1
16 -5 2 -2 2 5 1 6 -2 12 2 12 8 0 6 3 8 7 4 4 -3 -1 -14 -12 -24z m305 25 c0
-2 -12 -14 -27 -28 l-28 -24 24 28 c23 25 31 32 31 24z m-413 -43 c-3 -3 -12
-4 -19 -1 -8 3 -5 6 6 6 11 1 17 -2 13 -5z m-89 -11 c-10 -2 -26 -2 -35 0 -10
3 -2 5 17 5 19 0 27 -2 18 -5z m162 -16 c0 -2 -12 -14 -27 -28 l-28 -24 24 28
c23 25 31 32 31 24z m270 -10 c0 -2 -10 -12 -22 -23 l-23 -19 19 23 c18 21 26
27 26 19z m-350 -82 c-23 -24 -23 -25 -5 -47 l19 -23 -24 22 -24 23 24 25 c13
14 26 25 28 25 3 0 -5 -11 -18 -25z m290 12 c0 -2 -12 -14 -27 -28 l-28 -24
24 28 c23 25 31 32 31 24z m-60 -70 c0 -2 -12 -14 -27 -28 l-28 -24 24 28 c23
25 31 32 31 24z m-165 -47 c10 -11 16 -20 13 -20 -3 0 -13 9 -23 20 -10 11
-16 20 -13 20 3 0 13 -9 23 -20z m87 -42 c-18 -18 -24 -20 -34 -10 -11 11 -10
12 3 7 9 -3 22 1 29 10 7 8 15 15 18 15 4 0 -4 -10 -16 -22z"/>
<path d="M2350 4727 c-33 -83 -80 -231 -80 -251 0 -8 131 -10 453 -8 248 2
454 6 456 7 2 2 -24 43 -58 91 l-60 88 -318 73 c-175 40 -328 75 -339 78 -19
4 -25 -6 -54 -78z"/>
<path d="M3409 3221 c-56 -55 -54 -94 5 -149 49 -45 93 -58 159 -48 45 8 127
50 127 67 0 25 -144 131 -211 154 l-41 15 -39 -39z"/>
<path d="M9057 5129 c-27 -16 -186 -218 -193 -246 -10 -38 12 -95 48 -129 49
-46 1729 -1379 1755 -1393 27 -14 79 -17 111 -7 28 9 198 219 205 254 8 43
-13 91 -56 132 -56 51 -1658 1325 -1721 1367 -50 35 -112 44 -149 22z m83
-123 c0 -2 -8 -10 -17 -17 -16 -13 -17 -12 -4 4 13 16 21 21 21 13z m31 -13
c13 -16 12 -17 -3 -4 -10 7 -18 15 -18 17 0 8 8 3 21 -13z m44 -33 c10 -11 16
-20 13 -20 -3 0 -13 9 -23 20 -10 11 -16 20 -13 20 3 0 13 -9 23 -20z m-115
-4 c0 -2 -8 -10 -17 -17 -16 -13 -17 -12 -4 4 13 16 21 21 21 13z m161 -33
c13 -16 12 -17 -3 -4 -10 7 -18 15 -18 17 0 8 8 3 21 -13z m-191 -6 c0 -2 -10
-12 -22 -23 l-23 -19 19 23 c18 21 26 27 26 19z m241 -34 c13 -16 12 -17 -3
-4 -10 7 -18 15 -18 17 0 8 8 3 21 -13z m-281 -17 c0 -2 -8 -10 -17 -17 -16
-13 -17 -12 -4 4 13 16 21 21 21 13z m331 -23 c13 -16 12 -17 -3 -4 -10 7 -18
15 -18 17 0 8 8 3 21 -13z m50 -40 c13 -16 12 -17 -3 -4 -10 7 -18 15 -18 17
0 8 8 3 21 -13z m-360 -10 c13 -16 12 -17 -3 -4 -10 7 -18 15 -18 17 0 8 8 3
21 -13z m410 -30 c13 -16 12 -17 -3 -4 -10 7 -18 15 -18 17 0 8 8 3 21 -13z
m-360 -10 c13 -16 12 -17 -3 -4 -10 7 -18 15 -18 17 0 8 8 3 21 -13z m410 -30
c13 -16 12 -17 -3 -4 -10 7 -18 15 -18 17 0 8 8 3 21 -13z m-360 -10 c13 -16
12 -17 -3 -4 -10 7 -18 15 -18 17 0 8 8 3 21 -13z m404 -23 c10 -11 16 -20 13
-20 -3 0 -13 9 -23 20 -10 11 -16 20 -13 20 3 0 13 -9 23 -20z m-354 -17 c13
-16 12 -17 -3 -4 -10 7 -18 15 -18 17 0 8 8 3 21 -13z m404 -23 c10 -11 16
-20 13 -20 -3 0 -13 9 -23 20 -10 11 -16 20 -13 20 3 0 13 -9 23 -20z m-354
-17 c13 -16 12 -17 -3 -4 -10 7 -18 15 -18 17 0 8 8 3 21 -13z m404 -23 c10
-11 16 -20 13 -20 -3 0 -13 9 -23 20 -10 11 -16 20 -13 20 3 0 13 -9 23 -20z
m-354 -17 c13 -16 12 -17 -3 -4 -10 7 -18 15 -18 17 0 8 8 3 21 -13z m400 -20
c13 -16 12 -17 -3 -4 -10 7 -18 15 -18 17 0 8 8 3 21 -13z m-356 -13 c10 -11
16 -20 13 -20 -3 0 -13 9 -23 20 -10 11 -16 20 -13 20 3 0 13 -9 23 -20z m406
-27 c13 -16 12 -17 -3 -4 -10 7 -18 15 -18 17 0 8 8 3 21 -13z m-350 -20 c13
-16 12 -17 -3 -4 -10 7 -18 15 -18 17 0 8 8 3 21 -13z m400 -20 c13 -16 12
-17 -3 -4 -10 7 -18 15 -18 17 0 8 8 3 21 -13z m-360 -10 c13 -16 12 -17 -3
-4 -10 7 -18 15 -18 17 0 8 8 3 21 -13z m410 -30 c13 -16 12 -17 -3 -4 -10 7
-18 15 -18 17 0 8 8 3 21 -13z m-360 -10 c13 -16 12 -17 -3 -4 -10 7 -18 15
-18 17 0 8 8 3 21 -13z m410 -30 c13 -16 12 -17 -3 -4 -10 7 -18 15 -18 17 0
8 8 3 21 -13z m-360 -10 c13 -16 12 -17 -3 -4 -10 7 -18 15 -18 17 0 8 8 3 21
-13z m404 -23 c10 -11 16 -20 13 -20 -3 0 -13 9 -23 20 -10 11 -16 20 -13 20
3 0 13 -9 23 -20z m-354 -17 c13 -16 12 -17 -3 -4 -10 7 -18 15 -18 17 0 8 8
3 21 -13z m404 -23 c10 -11 16 -20 13 -20 -3 0 -13 9 -23 20 -10 11 -16 20
-13 20 3 0 13 -9 23 -20z m-354 -17 c13 -16 12 -17 -3 -4 -10 7 -18 15 -18 17
0 8 8 3 21 -13z m404 -23 c10 -11 16 -20 13 -20 -3 0 -13 9 -23 20 -10 11 -16
20 -13 20 3 0 13 -9 23 -20z m-354 -17 c13 -16 12 -17 -3 -4 -10 7 -18 15 -18
17 0 8 8 3 21 -13z m400 -20 c13 -16 12 -17 -3 -4 -10 7 -18 15 -18 17 0 8 8
3 21 -13z m-350 -20 c13 -16 12 -17 -3 -4 -10 7 -18 15 -18 17 0 8 8 3 21 -13z
m400 -20 c13 -16 12 -17 -3 -4 -10 7 -18 15 -18 17 0 8 8 3 21 -13z m-350 -20
c13 -16 12 -17 -3 -4 -10 7 -18 15 -18 17 0 8 8 3 21 -13z m400 -20 c13 -16
12 -17 -3 -4 -10 7 -18 15 -18 17 0 8 8 3 21 -13z m-350 -20 c13 -16 12 -17
-3 -4 -10 7 -18 15 -18 17 0 8 8 3 21 -13z m400 -20 c13 -16 12 -17 -3 -4 -10
7 -18 15 -18 17 0 8 8 3 21 -13z m-360 -10 c13 -16 12 -17 -3 -4 -10 7 -18 15
-18 17 0 8 8 3 21 -13z m410 -30 c13 -16 12 -17 -3 -4 -10 7 -18 15 -18 17 0
8 8 3 21 -13z m-360 -10 c13 -16 12 -17 -3 -4 -10 7 -18 15 -18 17 0 8 8 3 21
-13z m410 -30 c13 -16 12 -17 -3 -4 -10 7 -18 15 -18 17 0 8 8 3 21 -13z
m-360 -10 c13 -16 12 -17 -3 -4 -10 7 -18 15 -18 17 0 8 8 3 21 -13z m404 -23
c10 -11 16 -20 13 -20 -3 0 -13 9 -23 20 -10 11 -16 20 -13 20 3 0 13 -9 23
-20z m-354 -17 c13 -16 12 -17 -3 -4 -10 7 -18 15 -18 17 0 8 8 3 21 -13z
m404 -23 c10 -11 16 -20 13 -20 -3 0 -13 9 -23 20 -10 11 -16 20 -13 20 3 0
13 -9 23 -20z m-354 -17 c13 -16 12 -17 -3 -4 -17 13 -22 21 -14 21 2 0 10 -8
17 -17z m400 -20 c13 -16 12 -17 -3 -4 -10 7 -18 15 -18 17 0 8 8 3 21 -13z
m-350 -20 c13 -16 12 -17 -3 -4 -10 7 -18 15 -18 17 0 8 8 3 21 -13z m400 -20
c13 -16 12 -17 -3 -4 -10 7 -18 15 -18 17 0 8 8 3 21 -13z m-356 -13 c10 -11
16 -20 13 -20 -3 0 -13 9 -23 20 -10 11 -16 20 -13 20 3 0 13 -9 23 -20z m406
-27 c13 -16 12 -17 -3 -4 -10 7 -18 15 -18 17 0 8 8 3 21 -13z m-350 -20 c13
-16 12 -17 -3 -4 -10 7 -18 15 -18 17 0 8 8 3 21 -13z m400 -20 c13 -16 12
-17 -3 -4 -17 13 -22 21 -14 21 2 0 10 -8 17 -17z m-360 -10 c13 -16 12 -17
-3 -4 -10 7 -18 15 -18 17 0 8 8 3 21 -13z m410 -30 c13 -16 12 -17 -3 -4 -10
7 -18 15 -18 17 0 8 8 3 21 -13z m-360 -10 c13 -16 12 -17 -3 -4 -10 7 -18 15
-18 17 0 8 8 3 21 -13z m410 -30 c13 -16 12 -17 -3 -4 -10 7 -18 15 -18 17 0
8 8 3 21 -13z m-360 -10 c13 -16 12 -17 -3 -4 -10 7 -18 15 -18 17 0 8 8 3 21
-13z m404 -23 c10 -11 16 -20 13 -20 -3 0 -13 9 -23 20 -10 11 -16 20 -13 20
3 0 13 -9 23 -20z m-354 -17 c13 -16 12 -17 -3 -4 -10 7 -18 15 -18 17 0 8 8
3 21 -13z m404 -23 c10 -11 16 -20 13 -20 -3 0 -13 9 -23 20 -10 11 -16 20
-13 20 3 0 13 -9 23 -20z m-354 -17 c13 -16 12 -17 -3 -4 -10 7 -18 15 -18 17
0 8 8 3 21 -13z m50 -40 c13 -16 12 -17 -3 -4 -10 7 -18 15 -18 17 0 8 8 3 21
-13z m319 13 c0 -2 -8 -10 -17 -17 -16 -13 -17 -12 -4 4 13 16 21 21 21 13z
m-269 -53 c13 -16 12 -17 -3 -4 -10 7 -18 15 -18 17 0 8 8 3 21 -13z m229 3
c0 -2 -8 -10 -17 -17 -16 -13 -17 -12 -4 4 13 16 21 21 21 13z m-179 -43 c13
-16 12 -17 -3 -4 -10 7 -18 15 -18 17 0 8 8 3 21 -13z m139 -7 c0 -2 -8 -10
-17 -17 -16 -13 -17 -12 -4 4 13 16 21 21 21 13z m-95 -26 c10 -11 16 -20 13
-20 -3 0 -13 9 -23 20 -10 11 -16 20 -13 20 3 0 13 -9 23 -20z m65 -14 c0 -2
-6 -9 -14 -15 -11 -9 -16 -9 -22 0 -4 7 -3 9 4 5 6 -3 13 -2 17 4 6 10 15 14
15 6z"/>
<path d="M2868 3880 l-218 -5 126 -177 c69 -98 130 -178 135 -178 5 0 48 40
96 88 95 96 179 157 276 202 63 29 190 60 247 60 18 0 29 4 25 10 -6 10 -271
10 -687 0z"/>
<path d="M4676 3570 c-11 -79 -61 -223 -107 -309 -65 -120 -136 -214 -369
-485 -245 -284 -238 -265 -93 -245 249 34 434 119 569 262 79 83 124 161 153
267 38 137 23 219 -79 428 l-67 137 -7 -55z"/>
<path d="M8749 3568 c-16 -27 -19 -45 -16 -96 5 -60 4 -62 -17 -56 -84 27
-146 20 -168 -19 -19 -34 -13 -161 16 -367 35 -245 36 -262 27 -285 -13 -31 8
-62 53 -79 319 -120 526 -188 573 -188 68 -1 138 34 173 86 14 21 44 45 65 55
44 20 90 62 110 101 28 56 26 94 -22 398 -46 296 -48 303 -65 282 -15 -19 -19
-20 -24 -6 -3 9 -15 16 -26 16 -15 0 -19 5 -15 19 4 15 -3 20 -38 24 -23 4
-107 27 -186 52 -239 77 -309 95 -365 95 -50 0 -56 -2 -75 -32z m351 -542
c-11 -34 -31 -46 -77 -46 -27 0 -27 0 -12 51 11 35 15 38 53 41 23 2 42 0 44
-4 2 -4 -1 -23 -8 -42z"/>
</g>
</svg>
