<?xml version="1.0" standalone="no"?>
<!DOCTYPE svg PUBLIC "-//W3C//DTD SVG 20010904//EN"
 "http://www.w3.org/TR/2001/REC-SVG-20010904/DTD/svg10.dtd">
<svg version="1.0" xmlns="http://www.w3.org/2000/svg"
 width="700.000000pt" height="700.000000pt" viewBox="0 0 700.000000 700.000000"
 preserveAspectRatio="xMidYMid meet">
<metadata>
Created by potrace 1.14, written by Peter Selinger 2001-2017
</metadata>
<g transform="translate(0.000000,700.000000) scale(0.100000,-0.100000)"
fill="#000000" stroke="none">
<path d="M3474 6935 c-1 -36 -3 -67 -5 -69 -2 -2 -84 -6 -183 -10 -98 -3 -181
-8 -185 -10 -3 -2 -37 -7 -76 -11 -79 -7 -128 -14 -165 -21 -14 -2 -38 -7 -55
-10 -16 -2 -37 -7 -45 -9 -8 -2 -28 -7 -45 -9 -16 -3 -66 -15 -110 -26 -44
-12 -89 -23 -101 -26 -51 -10 -276 -90 -397 -140 -138 -58 -324 -152 -414
-210 -30 -19 -55 -34 -58 -34 -2 0 -48 -30 -102 -67 -84 -57 -140 -99 -247
-183 -167 -132 -346 -314 -545 -555 -62 -75 -198 -281 -279 -423 -56 -98 -172
-341 -187 -392 -4 -14 -11 -29 -15 -35 -10 -13 -115 -335 -124 -381 -3 -10 -9
-39 -15 -64 -19 -75 -20 -81 -41 -195 -10 -60 -22 -132 -25 -160 -4 -27 -8
-61 -11 -75 -22 -129 -22 -609 0 -740 2 -14 7 -50 11 -80 4 -30 9 -64 11 -75
2 -11 5 -36 8 -55 2 -19 14 -78 25 -130 75 -353 210 -705 385 -1003 28 -48 56
-95 61 -105 174 -298 546 -707 840 -923 33 -24 62 -47 65 -50 6 -7 158 -110
185 -125 11 -6 56 -33 100 -59 307 -183 753 -353 1075 -409 14 -2 52 -9 85
-15 198 -36 335 -46 600 -46 188 1 333 7 405 19 14 3 43 7 65 10 71 9 179 27
225 37 25 6 56 13 70 15 39 7 212 54 240 65 14 5 34 11 45 13 29 6 213 74 262
96 24 11 46 20 49 20 14 0 263 125 362 181 701 403 1250 1049 1534 1804 16 44
31 85 32 90 2 6 6 18 9 28 32 84 93 311 112 414 2 15 7 39 10 53 3 14 8 45 11
70 3 25 8 47 9 50 2 3 7 35 10 70 4 36 9 79 11 95 21 191 21 578 -1 717 -2 13
-6 49 -10 82 -7 58 -11 90 -20 136 -3 14 -8 43 -11 65 -3 22 -13 69 -21 105
-8 36 -16 73 -18 82 -15 76 -90 311 -135 428 -12 30 -27 71 -35 91 -7 20 -18
45 -23 55 -6 11 -38 77 -73 148 -148 307 -372 626 -618 881 -531 549 -1211
906 -1961 1030 -68 11 -86 14 -150 20 -36 4 -80 8 -99 10 -19 3 -96 7 -171 10
l-136 6 0 -66z"/>
</g>
</svg>
